<svg width="111" height="38" viewBox="0 0 111 38" fill="none" xmlns="http://www.w3.org/2000/svg">
<path d="M0 0H110.225V38H0V0ZM11.3748 5.86358C7.80132 7.6 4.90728 10.7709 3.77483 14.6212C2.66755 18.5219 2.91921 22.8503 4.6808 26.4993C6.56821 30.2742 10.1921 33.1179 14.3192 34.049C17.3894 34.7285 20.6358 34.6781 23.6556 33.7722C26.7762 32.8411 29.2927 30.702 31.5576 28.4623C29.9974 26.8265 28.4119 25.1907 26.8265 23.555C24.9894 25.4424 22.8503 27.355 20.1073 27.7325C17.1881 28.2358 13.9417 27.2795 11.9788 25.0146C9.10993 21.6424 9.33642 15.955 12.7589 13.0358C14.7722 11.1483 17.7166 10.5444 20.3589 11.098C22.9258 11.5762 25.0397 13.2874 26.751 15.1497C28.3868 13.6397 29.9722 12.0795 31.6079 10.5695C29.4689 7.87682 26.5245 5.81325 23.2026 4.88212C19.3523 3.69934 15.0238 4.02649 11.3748 5.86358ZM34.2755 4.65563C34.1748 6.8702 34.2503 9.10993 34.2252 11.3245H55.2887C55.2636 9.10993 55.3139 6.8702 55.2636 4.65563C48.2676 4.65563 41.2715 4.65563 34.2755 4.65563ZM68.7272 4.6808C68.6517 4.95762 68.551 5.2596 68.4755 5.53642C64.6755 15.0238 60.8503 24.5113 57.1258 34.0238H64.751C66.8649 28.6887 69.0291 23.3788 71.1682 18.0689C71.5709 17.1378 71.8728 16.1563 72.3762 15.3007C74.8676 21.5417 77.4093 27.7828 79.9007 34.0238C82.4424 34.049 84.9841 34.0238 87.5258 34.0238C83.7007 24.2093 79.6993 14.4702 75.849 4.6808C73.4331 4.6808 71.0927 4.65563 68.7272 4.6808ZM83.147 11.6768C85.8146 11.6517 88.457 11.6768 91.1245 11.6768V33.8729H98.1457C98.196 26.4742 98.1205 19.0755 98.1709 11.6768H106.123C106.123 9.33642 106.123 6.99603 106.123 4.65563C98.4477 4.68079 90.7974 4.65563 83.147 4.65563C83.1219 7.02119 83.1219 9.36159 83.147 11.6768ZM34.2 15.9298C34.2755 18.1444 34.1497 20.3338 34.2755 22.5483C41.2715 22.498 48.2676 22.5232 55.2636 22.5483C55.2887 20.3338 55.2636 18.1192 55.2636 15.9298C48.2676 15.9298 41.2212 15.8795 34.2 15.9298ZM34.2252 27.3801C34.2252 29.5947 34.1748 31.8344 34.2503 34.049C41.2464 34.0238 48.2424 34.0238 55.2384 34.049C55.3391 31.8093 55.2636 29.5947 55.2887 27.355C48.2676 27.355 41.2464 27.3298 34.2252 27.3801Z" fill="#203F99"/>
<path d="M11.375 5.86335C15.024 4.02627 19.3524 3.69911 23.2279 4.8819C26.5498 5.83819 29.4942 7.90176 31.6332 10.5945C29.9975 12.1044 28.412 13.6647 26.7763 15.1746C25.065 13.2872 22.9763 11.5759 20.4094 11.0978C17.7418 10.5441 14.7975 11.1481 12.8094 13.0355C9.36171 15.9296 9.13522 21.6422 12.0041 25.0143C13.9922 27.2792 17.2134 28.2355 20.1326 27.7322C22.8756 27.3799 24.9895 25.4673 26.8518 23.5547C28.412 25.1905 29.9975 26.8263 31.5829 28.462C29.318 30.6766 26.7763 32.8408 23.6809 33.772C20.661 34.6528 17.4147 34.7283 14.3697 34.0488C10.2425 33.1428 6.61866 30.2739 4.73125 26.4991C2.94449 22.8501 2.69284 18.4965 3.82529 14.621C4.88224 10.7706 7.80145 7.59978 11.375 5.86335ZM68.7273 4.68057C71.0928 4.65541 73.4332 4.68057 75.7988 4.68057C79.624 14.4951 83.6253 24.2342 87.4756 34.0236C84.9339 33.9984 82.3922 34.0488 79.8505 34.0236C77.3591 27.7574 74.8173 21.5415 72.326 15.3004C71.8226 16.1812 71.5207 17.1627 71.118 18.0687C68.9789 23.4037 66.8399 28.7137 64.7008 34.0236C62.1591 34.0236 59.6173 34.0236 57.0756 34.0236C60.8505 24.511 64.6756 15.0236 68.4756 5.5362C68.5511 5.25938 68.6518 4.98256 68.7273 4.68057ZM83.1471 11.7018C83.122 9.36137 83.1471 7.02097 83.1471 4.68057C90.7975 4.68057 98.473 4.70574 106.123 4.68057V11.7018C103.481 11.6766 100.813 11.7018 98.171 11.7018C98.1207 19.1004 98.171 26.4991 98.1458 33.8978C95.8054 33.8978 93.465 33.8978 91.1246 33.8978C91.1246 26.4991 91.1246 19.1004 91.1246 11.7018C88.4571 11.6766 85.7895 11.6766 83.1471 11.7018Z" fill="white"/>
<path d="M34.2757 4.65552C41.2717 4.65552 48.2677 4.68068 55.2638 4.65552C55.3393 6.87009 55.2889 9.10982 55.2889 11.3244C48.2677 11.3244 41.2466 11.3244 34.2254 11.3244C34.2505 9.08466 34.175 6.87009 34.2757 4.65552ZM34.2002 15.9297C41.2214 15.8794 48.2677 15.9297 55.2889 15.9045C55.2889 18.1191 55.3141 20.3085 55.2889 22.5231C48.2929 22.4979 41.2969 22.4979 34.3009 22.5231C34.1499 20.3337 34.2757 18.1443 34.2002 15.9297ZM34.2254 27.38C41.2466 27.3045 48.2677 27.3297 55.2889 27.3549C55.2638 29.5946 55.3393 31.8092 55.2386 34.0489C48.2426 34.0237 41.2466 34.0237 34.2505 34.0489C34.175 31.8595 34.2505 29.6198 34.2254 27.38Z" fill="#F04F23"/>
</svg>
