<svg width="136" height="30" viewBox="0 0 136 30" fill="none" xmlns="http://www.w3.org/2000/svg">
<path d="M135.937 0V30H0V0H135.937Z" fill="#FECC00"/>
<path d="M43.829 12.5349C43.2349 13.3393 42.241 14.7377 41.6362 15.5545C41.3291 15.9699 40.7745 16.724 42.6131 16.724H52.2931C52.2931 16.724 53.8532 14.6016 55.1611 12.8265C56.9401 10.4117 55.3151 5.38721 48.9548 5.38721H23.9066L19.5635 11.288H43.2342C44.4292 11.288 44.4129 11.7429 43.829 12.5349ZM36.7176 18.1797C34.8791 18.1797 35.4337 17.424 35.7407 17.0087C36.3456 16.1919 37.3557 14.8081 37.9498 14.0037C38.5345 13.2117 38.55 12.7569 37.3534 12.7569H26.5279L17.8054 24.6112H39.0767C46.1022 24.6112 50.0137 19.8326 51.2195 18.1805L36.7176 18.1797ZM50.5551 24.6112H63.0336L67.7641 18.1789L55.2872 18.1805C55.2833 18.1797 50.5551 24.6112 50.5551 24.6112ZM82.751 5.38721L77.9647 11.8883H72.3957L77.1796 5.38721H64.705L56.3592 16.724H86.8806L95.224 5.38721H82.751ZM68.6026 24.6112H81.0764L85.8093 18.1805H73.3355C73.3308 18.1797 68.6026 24.6112 68.6026 24.6112ZM0 20.7167V22.0827H17.3784L18.3824 20.7167H0ZM20.2503 18.1797H0V19.5441H19.2441L20.2503 18.1797ZM0 24.6112H15.5167L16.516 23.2529H0V24.6112ZM117.624 22.0819H135.937V20.7159H118.629L117.624 22.0819ZM115.764 24.6112H135.937V23.2529H116.762L115.764 24.6112ZM120.494 18.1797L119.491 19.5457H135.937V18.1797H120.494ZM104.155 16.724L112.5 5.38721H99.2887C99.284 5.38721 90.9374 16.724 90.9374 16.724H104.155ZM89.8677 18.1797C89.8677 18.1797 88.9558 19.4258 88.5126 20.026C86.9463 22.1422 88.3316 24.6112 93.4443 24.6112H113.478L118.211 18.1805L89.8677 18.1797Z" fill="#D50029"/>
</svg>
