<svg width="119" height="40" viewBox="0 0 119 40" fill="none" xmlns="http://www.w3.org/2000/svg">
<path d="M50.6406 20.5131C50.6406 26.0653 46.27 30.1566 40.9062 30.1566C35.5425 30.1566 31.1719 26.0653 31.1719 20.5131C31.1719 14.9218 35.5425 10.8696 40.9062 10.8696C46.27 10.8696 50.6406 14.9218 50.6406 20.5131ZM46.3794 20.5131C46.3794 17.0435 43.8462 14.6696 40.9062 14.6696C37.9662 14.6696 35.4331 17.0435 35.4331 20.5131C35.4331 23.9479 37.9662 26.3566 40.9062 26.3566C43.8462 26.3566 46.3794 23.9435 46.3794 20.5131Z" fill="#EA4335"/>
<path d="M71.6406 20.5131C71.6406 26.0653 67.27 30.1566 61.9062 30.1566C56.5425 30.1566 52.1719 26.0653 52.1719 20.5131C52.1719 14.9262 56.5425 10.8696 61.9062 10.8696C67.27 10.8696 71.6406 14.9218 71.6406 20.5131ZM67.3794 20.5131C67.3794 17.0435 64.8462 14.6696 61.9062 14.6696C58.9662 14.6696 56.4331 17.0435 56.4331 20.5131C56.4331 23.9479 58.9662 26.3566 61.9062 26.3566C64.8462 26.3566 67.3794 23.9435 67.3794 20.5131Z" fill="#FBBC05"/>
<path d="M91.7656 11.4522V28.7653C91.7656 35.887 87.5393 38.7957 82.5431 38.7957C77.84 38.7957 75.0093 35.6696 73.9418 33.1131L77.6518 31.5783C78.3125 33.1479 79.9312 35.0001 82.5387 35.0001C85.7369 35.0001 87.7187 33.0392 87.7187 29.3479V27.9609H87.57C86.6162 29.1305 84.7787 30.1522 82.46 30.1522C77.6081 30.1522 73.1631 25.9522 73.1631 20.5479C73.1631 15.1044 77.6081 10.8696 82.46 10.8696C84.7743 10.8696 86.6119 11.8914 87.57 13.0261H87.7187V11.4566H91.7656V11.4522ZM88.0206 20.5479C88.0206 17.1522 85.7412 14.6696 82.8406 14.6696C79.9006 14.6696 77.4375 17.1522 77.4375 20.5479C77.4375 23.9088 79.9006 26.3566 82.8406 26.3566C85.7412 26.3566 88.0206 23.9088 88.0206 20.5479Z" fill="#4285F4"/>
<path d="M98.4375 1.30444V29.5653H94.2812V1.30444H98.4375Z" fill="#34A853"/>
<path d="M114.634 23.687L117.941 25.8783C116.874 27.4478 114.301 30.1522 109.856 30.1522C104.344 30.1522 100.227 25.9174 100.227 20.5087C100.227 14.7739 104.379 10.8652 109.38 10.8652C114.415 10.8652 116.878 14.8478 117.683 17L118.125 18.0957L105.153 23.4348C106.146 25.3696 107.691 26.3565 109.856 26.3565C112.026 26.3565 113.531 25.2957 114.634 23.687ZM104.453 20.2174L113.125 16.6391C112.648 15.4348 111.213 14.5957 109.524 14.5957C107.358 14.5957 104.344 16.4957 104.453 20.2174Z" fill="#EA4335"/>
<path d="M15.4396 18.0043V13.913H29.3127C29.4483 14.6261 29.5183 15.4696 29.5183 16.3826C29.5183 19.4522 28.674 23.2478 25.9527 25.9522C23.3058 28.6913 19.924 30.1522 15.444 30.1522C7.14021 30.1522 0.157715 23.4304 0.157715 15.1783C0.157715 6.92608 7.14021 0.204346 15.444 0.204346C20.0377 0.204346 23.3102 1.99565 25.769 4.33043L22.864 7.21739C21.1008 5.57391 18.7121 4.29565 15.4396 4.29565C9.37584 4.29565 4.63334 9.15217 4.63334 15.1783C4.63334 21.2043 9.37584 26.0609 15.4396 26.0609C19.3727 26.0609 21.6127 24.4913 23.0477 23.0652C24.2115 21.9087 24.9771 20.2565 25.279 18L15.4396 18.0043Z" fill="#4285F4"/>
</svg>
